<svg xmlns="http://www.w3.org/2000/svg" width="405.023" height="405.023" viewBox="0 0 303.767 303.767"><path stroke-width=".567" stroke-miterlimit="22.926" fill="none" stroke="#231f20" d="M1.284 1.283h301.2v301.2H1.284z"/><path d="M46.001 157.867c16.002-4.297 73.562-17.55 90.187-7.972 16.626 9.578 9.753 32.391 8.181 46.328-1.572 13.938-9.56 33.944-17.06 32.383-7.498-1.562 8.696-48.347-9.004-62.134-17.7-13.786-63.7-1.695-70.066-1.042-3.581.368-4.6-.607-4.845-2.695-.417-3.55.348-4.261 2.607-4.868" fill="#eeb214" fill-rule="evenodd"/><path d="M239.648 183.738c6.315-1.962 20.044-6.86 24.749-10.592 3.404-2.7 3.601-8.135-9.08-2.823-7.351 3.079-38.543 6.63-46.85-.867-9.808-8.852-6.169-28.149-4.777-41.02 3.132-28.977 7.103-36.013 14.536-61.663.562-1.94 7.414-21.184-.627-17.249-3.893 1.906-17.423 40.083-19.464 45.965-4.917 14.163-10.536 32.055-12.136 47.336-4.164 39.746 19.312 51.577 53.649 40.913zm-171.146-33.24c-.884 10.574-.595 21.07 5.233 30.086 4.162 6.436 12.695 14.582 24.69 15.532 11.994.951 53.006 4.004 67.522-4.9 4.266-2.617 10.622-15.663 4.983-17.683-8.991-3.222-26.051 4.075-46.01 2.709-11.4-.78-26.418 1.564-35.319-5.965-6.783-5.739-6.34-16.057-5.318-27.854 1.867-21.546 10.578-48.028 15.43-60.55 6.355-16.4 8.236-13.552 26.273-14.694 8.833-.56 29.703-1.557 36.75 3.246 17.294 11.786 8.956 57.738 6.165 76.068-.345 2.05-3.007 12.379-1.908 14.081 1.098 1.95 6.069 2.05 7.495-3.416 6.115-23.446 10.691-54.995 6.833-79.423-4.615-29.218-46.408-23.494-67.284-21.497-17.219 1.648-20.23 8.712-25.872 22.884-11.705 29.4-13.876 41.292-19.663 71.376zm10.143 47.842c-18.039-9.886-42.442 5.67-41.212 32.843.593 13.08 9.85 23.006 22.916 23.155 32.294.368 41.26-43.413 18.296-55.998zm-30.893 32.834c1.285 14.784 27.326 12.441 28.556-4.918 1.996-28.182-31.362-17.182-28.556 4.918zm118.125 1.814c.236 18.726 25.415 28.481 40.772 16.574 35.662-27.653 1.368-78.78-29.568-46.956-8.77 9.023-11.33 17.374-11.204 30.382zm13.863 1.438c10.132 17.542 40.699-2.93 26.749-21.903-11.97-16.28-36.88 4.36-26.749 21.903" fill="#00050a" fill-rule="evenodd"/></svg>